<?xml version="1.0" encoding="UTF-8" standalone="no"?>
<!DOCTYPE svg PUBLIC "-//W3C//DTD SVG 1.1//EN" "http://www.w3.org/Graphics/SVG/1.1/DTD/svg11.dtd">
<svg width="100%" height="100%" viewBox="0 0 2048 2048" version="1.1" xmlns="http://www.w3.org/2000/svg" xmlns:xlink="http://www.w3.org/1999/xlink" xml:space="preserve" xmlns:serif="http://www.serif.com/" style="fill-rule:evenodd;clip-rule:evenodd;stroke-linejoin:round;stroke-miterlimit:2;">
    <g transform="matrix(2.76504,0,0,2.76504,-376.35,-280.904)">
        <g opacity="0.17">
            <path d="M290.544,445.101C292.194,421.1 301.667,386.953 327.389,344.161C352.959,301.623 386.034,270.082 417.923,249.187C448.43,229.198 486.93,215.689 523.01,194.639C549.371,179.259 565.737,142.291 560.698,118.941C565.002,118.352 574.884,121.331 578.406,123.04C608.366,137.584 630.539,181.118 630.339,203.338C630.042,236.455 627.468,251.15 612.936,274.07C612.936,274.07 620.808,276.602 637.174,262.025C644.93,255.116 641.926,231.856 644.012,225.97C651.591,228.084 659.106,233.133 663.897,239.127C676.569,254.979 695.774,292.078 686.886,318.09C684.643,324.656 682.737,326.719 682.737,326.719C682.737,326.719 697.116,344.92 701.404,350.893C711.399,364.813 726.78,391.451 735.357,432.653C742.803,468.422 739.613,477.71 739.336,491.26C761.218,512.653 777.334,556.713 778.734,583.517C779.772,603.395 764.576,625.209 737.73,627.806C721.126,629.413 712.989,627.844 705.554,626.956C700.12,638.216 694.074,667.329 678.283,698.185C661.15,731.661 626.224,767.051 590.667,785.981C567.774,798.17 546.268,806.829 524.289,809.581C506.316,811.832 483.952,813.522 476.862,820.712C472.977,824.651 472.153,830.512 471.061,837.099C464.26,835.874 438.647,828.521 438.401,796.204C438.319,785.459 456.449,776.067 459.896,763.299C461.961,755.649 462.849,750.223 462.956,745.092C463.032,741.414 462.585,738.26 452.626,729.656C446.812,724.634 442.085,718.295 436.835,711.639C423.941,721.498 423.013,721.517 411.92,722.738C393.443,724.772 373.816,718.936 348.128,680.563C331.772,656.132 328.717,640.058 324.303,624.619C306.311,630.817 280.743,633.157 255.481,608.516C234.606,588.154 258.744,539.468 262.085,532.353C265.665,524.73 283.02,496.615 289.105,494.631C287.562,478.045 290.465,446.26 290.544,445.101Z"/>
            <g>
                <g transform="matrix(1.18257,0,0,1.14479,-147.465,-100.215)">
                    <path d="M750.891,666.472C757.879,656.414 763.597,648.35 781.987,645.148C789.043,643.919 797.865,643.163 800.54,638.261C803.886,632.128 804.154,626.062 802.823,621.764C800.962,615.761 797.615,608.195 795.417,603.269C799.814,601.771 805.634,602.07 810.199,602.432C815.93,602.886 837.209,609.218 837.269,639.107C837.311,660.066 831.058,664.93 822.909,674.644C829.088,683.532 833.083,686.578 832.305,702.64C831.651,716.122 813.928,740.947 791.588,741.445C768.248,741.964 745.782,723.195 744.062,702.921C742.614,685.857 744.421,675.787 750.891,666.472Z"/>
                </g>
                <g transform="matrix(1.16497,-0.203258,0.196763,1.12775,-246.591,-217.05)">
                    <path d="M756.996,662.241C766.412,654.583 772.74,650.059 788.762,647.533C795.836,646.418 800.598,640.803 799.636,634.146C798.423,625.747 796.172,626.209 793.968,617.64C792.371,611.432 792.882,607.557 795.819,603.006C798.018,599.599 800.535,596.904 804.71,593.407C807.883,596.758 828.897,618.715 832.502,637.224C836.505,657.771 824.781,669.436 816.631,679.15C822.81,688.038 827.652,689.582 828.603,701.728C829.656,715.183 811.859,738.797 790.665,740.237C767.37,741.819 746.495,722.833 744.062,702.921C741.985,685.926 747.742,669.767 756.996,662.241Z"/>
                </g>
            </g>
            <g transform="matrix(-1,0,0,1,1029.85,0)">
                <g transform="matrix(1.18257,0,0,1.14479,-146.956,-103.715)">
                    <path d="M749.015,668.591C754.163,657.412 763.094,644.007 781.483,640.806C788.54,639.577 800.823,638.818 803.498,633.915C806.844,627.783 806.94,625.133 806.763,620.73C806.489,613.879 805.976,606.844 804.429,602.411C809.654,600.736 813.781,600.945 818.015,601.603C822.527,602.304 838.763,607.012 838.531,639.107C838.38,660.065 831.058,664.93 822.909,674.644C829.088,683.532 833.083,686.578 832.305,702.64C831.651,716.122 813.928,740.947 791.588,741.445C768.248,741.964 745.782,723.195 744.062,702.921C742.614,685.857 744.023,679.432 749.015,668.591Z"/>
                </g>
                <g transform="matrix(1.16497,-0.203258,0.196763,1.12775,-240.013,-219.017)">
                    <path d="M754.549,659.378C763.965,651.72 768.404,645.887 784.426,643.361C791.5,642.246 797.055,640.725 797.934,633.834C798.592,628.681 798.518,625.21 794.636,616.696C791.883,610.657 793.719,605.79 796.831,601.365C799.413,597.695 801.339,595.004 803.745,592.604C807.368,595.363 828.897,618.715 832.502,637.224C836.505,657.771 824.781,669.436 816.631,679.15C822.81,688.038 827.652,689.582 828.603,701.728C829.656,715.183 811.859,738.797 790.665,740.237C767.37,741.819 746.495,722.833 744.062,702.921C741.985,685.926 745.295,666.904 754.549,659.378Z"/>
                </g>
            </g>
        </g>
    </g>
    <g transform="matrix(2.73077,0,0,2.73077,-382.147,-285.21)">
        <path d="M290.544,445.101C292.194,421.1 301.667,386.953 327.389,344.161C352.959,301.623 386.034,270.082 417.923,249.187C448.43,229.198 486.93,215.689 523.01,194.639C549.371,179.259 565.737,142.291 560.698,118.941C565.002,118.352 574.884,121.331 578.406,123.04C608.366,137.584 630.539,181.118 630.339,203.338C630.042,236.455 627.468,251.15 612.936,274.07C612.936,274.07 620.808,276.602 637.174,262.025C644.93,255.116 652.135,236.121 654.221,230.235C660.177,235.146 662.406,237.328 667.198,243.322C679.869,259.174 695.774,292.078 686.886,318.09C684.643,324.656 682.737,326.719 682.737,326.719C682.737,326.719 697.116,344.92 701.404,350.893C711.399,364.813 726.78,391.451 735.357,432.653C742.803,468.422 739.781,482.464 739.504,496.014C761.386,517.408 777.334,556.713 778.734,583.517C779.772,603.395 764.576,625.209 737.73,627.806C721.126,629.413 712.989,627.844 705.554,626.956C700.12,638.216 694.074,667.329 678.283,698.185C661.15,731.661 626.224,767.051 590.667,785.981C567.774,798.17 539.101,808.49 517.122,811.242C499.149,813.492 483.952,818.329 476.862,825.519C472.977,829.458 472.153,835.319 471.061,841.906C464.26,840.681 445.639,836.387 445.393,804.07C445.311,793.325 456.131,770.268 465.228,760.668C476.12,749.173 478.407,741.037 475.716,738.528C473.026,736.02 470.014,734.327 460.054,725.723C454.24,720.701 450.689,717.494 445.439,710.838C432.545,720.697 421.241,729.326 411.323,729.485C392.737,729.781 373.052,724.508 347.363,686.134C331.008,661.704 328.717,640.058 324.303,624.619C306.311,630.817 280.743,633.157 255.481,608.516C234.606,588.154 258.744,539.468 262.085,532.353C265.665,524.73 283.02,496.615 289.105,494.631C287.562,478.045 290.465,446.26 290.544,445.101Z" style="fill:white;"/>
        <path d="M305.327,540.457C308.321,517.052 299.811,452.285 315.784,405.293C332.321,356.64 357.699,321.025 388.496,293.31C424.164,261.211 454.938,248.234 492.563,232.541C547.09,209.799 585.45,175.558 576.674,137.625C596.121,148.654 614.965,189.879 613.7,210.892C611.959,239.815 583.58,280.219 586.174,286.04C588.487,291.235 616.295,297.447 634.329,285.483C650.629,274.67 659.781,256.168 659.695,252.418C666.958,260.78 680.46,292.653 670.931,319.843C666.321,332.997 659.132,338.781 656.818,344.117C655.791,346.486 656.135,349.638 656.871,350.928C657.564,352.142 660.036,352.572 661.238,351.859C664.209,350.097 671.448,345.624 674.869,341.289C680.22,344.678 707.897,390.523 719.224,431.055C729.285,467.062 725.016,510.144 724.462,527.624C724.365,530.69 723.756,535.9 726.211,536.638C730.773,538.012 732.768,526.248 734.881,515.411C740.903,517.526 762.895,558.034 764.088,584.848C764.949,604.194 744.98,616.591 722.595,614.928C703.111,613.481 698.125,610.003 693.767,615.568C684.073,627.946 681.343,659.203 665.551,690.058C648.418,723.535 615.196,754.223 582.692,771.592C559.817,783.815 536.993,793.622 515.014,796.374C497.041,798.624 484.363,804.197 478.81,807.59C469.112,813.515 466.98,820.409 463.615,825.519C459.939,820.374 457.586,813.294 459.255,801.911C460.813,791.28 474.381,770.481 483.478,760.881C494.37,749.386 490.336,732.8 487.646,730.291C484.955,727.782 456.522,705.78 450.61,694.265C447.101,687.431 441.305,664.998 438.606,664.032C436.37,663.231 437.361,683.382 436.461,692.559C434.647,711.058 400.758,730.658 371.951,694.567C353.09,670.938 341.189,614.693 336.374,610.949C329.16,605.339 290.064,624.725 271.103,602.569C252.143,580.413 268.445,555.001 271.786,547.887C275.365,540.263 287.412,517.093 293.898,516.112C295.565,524.785 296.95,533.855 297.918,540.15C298.702,545.246 304.619,545.995 305.327,540.457Z" style="fill:rgb(124,207,249);"/>
        <clipPath id="_clip1">
            <path d="M305.327,540.457C308.321,517.052 299.811,452.285 315.784,405.293C332.321,356.64 357.699,321.025 388.496,293.31C424.164,261.211 454.938,248.234 492.563,232.541C547.09,209.799 585.45,175.558 576.674,137.625C596.121,148.654 614.965,189.879 613.7,210.892C611.959,239.815 583.58,280.219 586.174,286.04C588.487,291.235 616.295,297.447 634.329,285.483C650.629,274.67 659.781,256.168 659.695,252.418C666.958,260.78 680.46,292.653 670.931,319.843C666.321,332.997 659.132,338.781 656.818,344.117C655.791,346.486 656.135,349.638 656.871,350.928C657.564,352.142 660.036,352.572 661.238,351.859C664.209,350.097 671.448,345.624 674.869,341.289C680.22,344.678 707.897,390.523 719.224,431.055C729.285,467.062 725.016,510.144 724.462,527.624C724.365,530.69 723.756,535.9 726.211,536.638C730.773,538.012 732.768,526.248 734.881,515.411C740.903,517.526 762.895,558.034 764.088,584.848C764.949,604.194 744.98,616.591 722.595,614.928C703.111,613.481 698.125,610.003 693.767,615.568C684.073,627.946 681.343,659.203 665.551,690.058C648.418,723.535 615.196,754.223 582.692,771.592C559.817,783.815 536.993,793.622 515.014,796.374C497.041,798.624 484.363,804.197 478.81,807.59C469.112,813.515 466.98,820.409 463.615,825.519C459.939,820.374 457.586,813.294 459.255,801.911C460.813,791.28 474.381,770.481 483.478,760.881C494.37,749.386 490.336,732.8 487.646,730.291C484.955,727.782 456.522,705.78 450.61,694.265C447.101,687.431 441.305,664.998 438.606,664.032C436.37,663.231 437.361,683.382 436.461,692.559C434.647,711.058 400.758,730.658 371.951,694.567C353.09,670.938 341.189,614.693 336.374,610.949C329.16,605.339 290.064,624.725 271.103,602.569C252.143,580.413 268.445,555.001 271.786,547.887C275.365,540.263 287.412,517.093 293.898,516.112C295.565,524.785 296.95,533.855 297.918,540.15C298.702,545.246 304.619,545.995 305.327,540.457Z"/>
        </clipPath>
        <g clip-path="url(#_clip1)">
            <path d="M288.156,597.615C313.545,599.612 330.386,590.538 341.886,596.317C347.363,599.069 349.281,612.555 359.401,635.66C370.407,660.789 380.686,696.994 406.323,696.103C428.505,695.332 419.522,650.426 437.106,650.983C459.292,651.685 457.298,712.49 515.059,713.668C564.174,714.67 635.619,644.198 658.462,608.109C685.007,566.172 705.195,502.832 693.7,447.131C691.386,435.922 681.616,381.098 640.453,345.497C632.578,338.686 652.525,319.132 659.491,295.95C663.991,280.969 663.2,214.639 653.978,260.382C651.697,271.696 620.776,293.779 603.543,294.813C574.696,296.542 554.991,291.368 564.294,273.933C579.118,246.149 590.895,241.031 596.226,218.848C599.274,206.165 600.593,179.725 594.66,156.912C616.66,168.94 624.396,197.508 623.131,218.52C624.688,246.283 607.763,263.098 610.356,268.92C612.67,274.114 621.626,274.368 639.66,262.405C655.96,251.592 659.573,220.419 659.487,216.67C666.749,225.032 708.654,261.931 699.125,289.121C694.515,302.275 701.434,320.231 699.12,325.566C698.092,327.935 698.436,331.088 699.173,332.378C699.866,333.592 702.338,334.022 703.54,333.309C706.511,331.547 713.75,327.074 717.17,322.738C722.522,326.128 752.789,393.57 764.115,434.103C774.176,470.11 785.965,493.552 785.412,511.032C785.315,514.098 784.71,520.003 786.257,520.197C788.762,520.512 794.183,510.053 794.474,498.891C801.564,504.418 819.084,610.518 820.277,637.333C821.138,656.678 801.17,669.075 778.784,667.412C759.301,665.965 727.245,654.7 722.887,660.264C713.193,672.642 710.463,703.899 694.671,734.754C677.538,768.231 628.063,798.581 595.559,815.949C572.684,828.173 549.86,837.979 527.881,840.731C509.908,842.982 476.575,842.121 471.022,845.514C461.324,851.439 459.192,858.333 455.827,863.443C452.151,858.298 449.798,851.218 451.466,839.835C453.025,829.204 452.032,778.269 461.129,768.669C472.022,757.174 467.988,740.588 465.298,738.079C462.607,735.57 458.892,732.869 452.98,721.354C449.471,714.519 443.675,692.086 440.976,691.12C438.74,690.32 439.731,710.471 438.831,719.647C437.017,738.147 390.261,745.218 361.454,709.127C342.593,685.498 332.046,635.348 327.232,631.604C320.018,625.994 281.045,637.93 262.085,615.775C243.125,593.619 250.347,587.548 253.687,580.433C257.267,572.81 268.312,596.054 288.156,597.615Z" style="fill:rgb(38,92,166);"/>
        </g>
        <g transform="matrix(-1,0,0,1,1027.45,0)">
            <path d="M627.218,566.151C624.206,569.957 621.521,584.181 644.195,583.23C667.273,582.262 668.331,568.394 668.008,566.572C667.287,562.515 664.592,556.892 649.256,557.049C638.941,557.154 630.524,561.974 627.218,566.151Z" style="fill:white;"/>
        </g>
        <path d="M627.218,566.151C624.206,569.957 621.521,584.181 644.195,583.23C667.273,582.262 668.331,568.394 668.008,566.572C667.287,562.515 664.592,556.892 649.256,557.049C638.941,557.154 630.524,561.974 627.218,566.151Z" style="fill:white;"/>
        <path d="M397.717,454.579C397.099,452.353 380.707,445.916 387.345,436.908C393.96,427.931 413.168,451.909 425.838,459.054C434.657,464.027 453.043,478.152 457.582,479.74C464.692,482.227 479.469,484.89 479.242,471.54C479.015,458.189 482.411,461.507 486.637,465.351C488.166,466.742 495.437,477.447 485.102,489.877C478.662,497.623 471.299,493.977 470.466,495.174C469.474,496.599 474.718,519.186 462.447,534.411C450.176,549.635 436.734,552.042 426.11,552.042C415.487,552.042 400.262,551.342 384.47,530.379C368.677,509.417 378.49,478.575 380.804,474.044C383.439,468.882 392.046,459.641 397.717,454.579Z" style="fill:rgb(62,29,48);"/>
        <clipPath id="_clip2">
            <path d="M397.717,454.579C397.099,452.353 380.707,445.916 387.345,436.908C393.96,427.931 413.168,451.909 425.838,459.054C434.657,464.027 453.043,478.152 457.582,479.74C464.692,482.227 479.469,484.89 479.242,471.54C479.015,458.189 482.411,461.507 486.637,465.351C488.166,466.742 495.437,477.447 485.102,489.877C478.662,497.623 471.299,493.977 470.466,495.174C469.474,496.599 474.718,519.186 462.447,534.411C450.176,549.635 436.734,552.042 426.11,552.042C415.487,552.042 400.262,551.342 384.47,530.379C368.677,509.417 378.49,478.575 380.804,474.044C383.439,468.882 392.046,459.641 397.717,454.579Z"/>
        </clipPath>
        <g clip-path="url(#_clip2)">
            <path d="M423.615,475.921C426.372,476.074 428.887,476.207 433.699,483.922C436.892,489.043 442.078,489.366 443.924,490.455C445.771,491.544 443.866,501.892 436.41,504.686C429.756,507.179 418.034,502.079 415.156,491.911C412.541,482.668 420.255,475.735 423.615,475.921Z" style="fill:white;"/>
        </g>
        <g transform="matrix(-1,0,0,1,1026.43,0)">
            <path d="M397.717,454.579C397.099,452.353 380.707,445.916 387.345,436.908C393.96,427.931 413.168,451.909 425.838,459.054C434.657,464.027 453.043,478.152 457.582,479.74C464.692,482.227 479.469,484.89 479.242,471.54C479.015,458.189 482.411,461.507 486.637,465.351C488.166,466.742 495.437,477.447 485.102,489.877C478.662,497.623 471.299,493.977 470.466,495.174C469.474,496.599 474.718,519.186 462.447,534.411C450.176,549.635 436.734,552.042 426.11,552.042C415.487,552.042 400.262,551.342 384.47,530.379C368.677,509.417 378.49,478.575 380.804,474.044C383.439,468.882 392.046,459.641 397.717,454.579Z" style="fill:rgb(62,29,48);"/>
            <clipPath id="_clip3">
                <path d="M397.717,454.579C397.099,452.353 380.707,445.916 387.345,436.908C393.96,427.931 413.168,451.909 425.838,459.054C434.657,464.027 453.043,478.152 457.582,479.74C464.692,482.227 479.469,484.89 479.242,471.54C479.015,458.189 482.411,461.507 486.637,465.351C488.166,466.742 495.437,477.447 485.102,489.877C478.662,497.623 471.299,493.977 470.466,495.174C469.474,496.599 474.718,519.186 462.447,534.411C450.176,549.635 436.734,552.042 426.11,552.042C415.487,552.042 400.262,551.342 384.47,530.379C368.677,509.417 378.49,478.575 380.804,474.044C383.439,468.882 392.046,459.641 397.717,454.579Z"/>
            </clipPath>
            <g clip-path="url(#_clip3)">
                <path d="M424.317,476.177C427.629,476.787 424.637,477.598 432.023,482.901C439.854,488.525 444.667,489.605 446.03,490.136C448.027,490.914 444.307,503.67 436.41,504.686C428.927,505.648 417.083,500.724 415.667,490.252C414.391,480.818 421.008,475.567 424.317,476.177Z" style="fill:white;"/>
            </g>
        </g>
        <path d="M512.835,562.918C521.147,562.952 528.043,564.104 537.781,575.997C543.1,582.492 544.802,586.938 549.994,583.944C551.646,582.991 553.017,578.053 551.086,574.241C547.805,567.764 545.39,561.452 536.405,555.163C526.634,548.323 522.837,547.435 512.952,547.476C503.475,547.514 495.529,551.068 488.986,556.036C481.044,562.067 475.98,570.118 474.961,576.825C474.651,578.861 474.914,583.282 476.841,584.076C481.449,585.974 483.499,581.326 487.945,575.413C497.274,563.004 504.522,562.884 512.835,562.918Z" style="fill:rgb(62,29,48);"/>
        <path d="M415.551,322.909C415.551,322.909 437.095,339.274 449.762,313.385C462.429,287.496 427.479,279.174 416.106,296.372C404.733,313.57 415.551,322.909 415.551,322.909Z" style="fill:white;"/>
        <path d="M657.498,666.548C656.786,663.361 654.994,660.817 652.255,664.349C649.271,668.197 645.099,677.484 640.123,682.426C630.586,691.897 630.362,695.959 632.289,698.858C632.289,698.858 640.384,706.743 650.767,692.822C656.88,684.626 658.586,671.422 657.498,666.548Z" style="fill:white;"/>
        <path d="M442.672,342.117C454.023,342.161 455.263,359.18 440.733,358.114C430.185,357.34 434.247,342.084 442.672,342.117Z" style="fill:white;"/>
        <g transform="matrix(1,0,0,1,-38.0944,-5.54773)">
            <path d="M442.672,339.454C457.761,341.165 458.947,364.553 440.511,361.961C427.404,360.118 430.988,338.129 442.672,339.454Z" style="fill:white;"/>
        </g>
        <g transform="matrix(0.873884,0,0,0.817224,-13.1784,63.7902)">
            <path d="M442.672,339.454C458.934,336.537 459.334,362.795 440.511,361.961C426.858,361.356 429.735,341.775 442.672,339.454Z" style="fill:white;"/>
        </g>
        <g>
            <g transform="matrix(1.18257,0,0,1.14479,-143.198,-97.2273)">
                <path d="M750.891,666.472C757.879,656.414 763.597,648.35 781.987,645.148C789.043,643.919 797.865,643.163 800.54,638.261C803.886,632.128 804.154,626.062 802.823,621.764C800.962,615.761 797.615,608.195 795.417,603.269C799.814,601.771 805.634,602.07 810.199,602.432C815.93,602.886 837.209,609.218 837.269,639.107C837.311,660.066 831.058,664.93 822.909,674.644C829.088,683.532 833.083,686.578 832.305,702.64C831.651,716.122 813.928,740.947 791.588,741.445C768.248,741.964 745.782,723.195 744.062,702.921C742.614,685.857 744.421,675.787 750.891,666.472Z" style="fill:white;"/>
            </g>
            <path d="M757.816,663.171C766.191,654.315 775.987,651.318 794.502,649.015C824.836,645.242 818.111,610.897 809.704,601.644C814.242,601.154 837.924,605.313 837.253,638.07C836.72,664.116 811.975,668.609 817.704,677.191C823.718,686.198 830.618,689.502 829.839,705.564C829.186,719.047 811.737,741.445 791.588,741.445C771.439,741.445 747.975,728.198 745.248,703.072C743.036,682.687 750.524,670.882 757.816,663.171Z" style="fill:rgb(124,207,249);"/>
            <clipPath id="_clip4">
                <path d="M757.816,663.171C766.191,654.315 775.987,651.318 794.502,649.015C824.836,645.242 818.111,610.897 809.704,601.644C814.242,601.154 837.924,605.313 837.253,638.07C836.72,664.116 811.975,668.609 817.704,677.191C823.718,686.198 830.618,689.502 829.839,705.564C829.186,719.047 811.737,741.445 791.588,741.445C771.439,741.445 747.975,728.198 745.248,703.072C743.036,682.687 750.524,670.882 757.816,663.171Z"/>
            </clipPath>
            <g clip-path="url(#_clip4)">
                <path d="M745.44,714.6C744.407,710.739 751.787,709.98 758.552,714.837C769.207,722.486 786.198,733.512 804.293,717.903C821.004,703.487 813.68,683.683 816.459,675.869C817.967,671.626 828.149,672.146 830.166,675.166C836.18,684.173 845.571,689.502 844.793,705.564C844.139,719.047 811.737,751.57 791.588,751.57C771.439,751.57 751.971,739.016 745.44,714.6Z" style="fill:rgb(38,92,166);"/>
            </g>
            <g transform="matrix(1.16497,-0.203258,0.196763,1.12775,-241.401,-217.05)">
                <path d="M756.996,662.241C766.412,654.583 772.74,650.059 788.762,647.533C795.836,646.418 800.598,640.803 799.636,634.146C798.423,625.747 796.172,626.209 793.968,617.64C792.371,611.432 792.882,607.557 795.819,603.006C798.018,599.599 800.535,596.904 804.71,593.407C807.883,596.758 828.897,618.715 832.502,637.224C836.505,657.771 824.781,669.436 816.631,679.15C822.81,688.038 827.652,689.582 828.603,701.728C829.656,715.183 811.859,738.797 790.665,740.237C767.37,741.819 746.495,722.833 744.062,702.921C741.985,685.926 747.742,669.767 756.996,662.241Z" style="fill:white;"/>
            </g>
            <g transform="matrix(1,0,0,1,23.8234,-291.871)">
                <path d="M766.034,662.967C778.441,654.52 796.482,654.557 800.753,636.394C804.513,620.402 794.505,617.872 789.123,604.671C787.395,600.434 791.289,591.362 794.265,594.833C803.44,605.533 824.031,617.943 823.057,641.26C822.157,662.814 807.329,666.934 810.108,676.792C813.047,687.216 829.422,687.309 828.643,703.371C827.99,716.853 812.136,740.049 791.987,740.049C771.838,740.049 750.145,727.56 747.417,702.434C745.205,682.049 757.261,668.94 766.034,662.967Z" style="fill:rgb(124,207,249);"/>
                <clipPath id="_clip5">
                    <path d="M766.034,662.967C778.441,654.52 796.482,654.557 800.753,636.394C804.513,620.402 794.505,617.872 789.123,604.671C787.395,600.434 791.289,591.362 794.265,594.833C803.44,605.533 824.031,617.943 823.057,641.26C822.157,662.814 807.329,666.934 810.108,676.792C813.047,687.216 829.422,687.309 828.643,703.371C827.99,716.853 812.136,740.049 791.987,740.049C771.838,740.049 750.145,727.56 747.417,702.434C745.205,682.049 757.261,668.94 766.034,662.967Z"/>
                </clipPath>
                <g clip-path="url(#_clip5)">
                    <path d="M743.446,721.703C742.413,717.842 749.793,717.083 756.558,721.94C767.213,729.589 794.628,731.165 804.293,717.903C822.189,693.347 801.182,687.64 803.807,677.835C804.972,673.485 821.106,659.283 823.122,662.303C829.136,671.311 845.571,689.502 844.793,705.564C844.139,719.047 811.737,751.57 791.588,751.57C771.439,751.57 749.977,746.119 743.446,721.703Z" style="fill:rgb(38,92,166);"/>
                </g>
            </g>
        </g>
        <g transform="matrix(-1,0,0,1,1029.85,0)">
            <g transform="matrix(1.18257,0,0,1.14479,-144.424,-97.2273)">
                <path d="M750.891,666.472C757.879,656.414 763.597,648.35 781.987,645.148C789.043,643.919 799.17,643.356 801.845,638.453C805.191,632.321 804.785,625.63 803.807,621.341C802.35,614.948 798.437,607.379 796.891,602.946C802.116,601.27 806.242,601.479 810.477,602.138C814.989,602.839 838.763,607.012 838.531,639.107C838.38,660.065 831.058,664.93 822.909,674.644C829.088,683.532 833.083,686.578 832.305,702.64C831.651,716.122 813.928,740.947 791.588,741.445C768.248,741.964 745.782,723.195 744.062,702.921C742.614,685.857 744.421,675.787 750.891,666.472Z" style="fill:white;"/>
            </g>
            <path d="M757.816,663.171C766.191,654.315 775.987,651.318 794.502,649.015C824.836,645.242 818.111,610.897 809.704,601.644C814.242,601.154 837.924,605.313 837.253,638.07C836.72,664.116 811.975,668.609 817.704,677.191C823.718,686.198 830.618,689.502 829.839,705.564C829.186,719.047 811.737,741.445 791.588,741.445C771.439,741.445 747.975,728.198 745.248,703.072C743.036,682.687 750.524,670.882 757.816,663.171Z" style="fill:rgb(124,207,249);"/>
            <clipPath id="_clip6">
                <path d="M757.816,663.171C766.191,654.315 775.987,651.318 794.502,649.015C824.836,645.242 818.111,610.897 809.704,601.644C814.242,601.154 837.924,605.313 837.253,638.07C836.72,664.116 811.975,668.609 817.704,677.191C823.718,686.198 830.618,689.502 829.839,705.564C829.186,719.047 811.737,741.445 791.588,741.445C771.439,741.445 747.975,728.198 745.248,703.072C743.036,682.687 750.524,670.882 757.816,663.171Z"/>
            </clipPath>
            <g clip-path="url(#_clip6)">
                <g transform="matrix(0.5,0.866025,-0.866025,0.5,996.368,-332.478)">
                    <path d="M745.44,714.6C744.407,710.739 751.787,709.98 758.552,714.837C769.207,722.486 786.198,733.512 804.293,717.903C821.004,703.487 812.898,681.02 815.676,673.205C817.185,668.962 826.356,660.612 828.372,663.632C834.386,672.64 845.571,689.502 844.793,705.564C844.139,719.047 811.737,751.57 791.588,751.57C771.439,751.57 751.971,739.016 745.44,714.6Z" style="fill:rgb(38,92,166);"/>
                </g>
            </g>
            <g transform="matrix(1.16497,-0.203258,0.196763,1.12775,-241.208,-217.05)">
                <path d="M756.996,662.241C766.412,654.583 772.74,650.059 788.762,647.533C795.836,646.418 798.944,642.034 799.823,635.143C800.481,629.99 798.518,625.21 794.636,616.696C791.883,610.657 793.719,605.79 796.831,601.365C799.413,597.695 801.339,595.004 803.745,592.604C807.368,595.363 828.897,618.715 832.502,637.224C836.505,657.771 824.781,669.436 816.631,679.15C822.81,688.038 827.652,689.582 828.603,701.728C829.656,715.183 811.859,738.797 790.665,740.237C767.37,741.819 746.495,722.833 744.062,702.921C741.985,685.926 747.742,669.767 756.996,662.241Z" style="fill:white;"/>
            </g>
            <g transform="matrix(1,0,0,1,23.8234,-291.871)">
                <path d="M766.034,662.967C778.441,654.52 796.482,654.557 800.753,636.394C804.513,620.402 794.505,617.872 789.123,604.671C787.395,600.434 791.289,591.362 794.265,594.833C803.44,605.533 824.031,617.943 823.057,641.26C822.157,662.814 807.329,666.934 810.108,676.792C813.047,687.216 829.422,687.309 828.643,703.371C827.99,716.853 812.136,740.049 791.987,740.049C771.838,740.049 750.145,727.56 747.417,702.434C745.205,682.049 757.261,668.94 766.034,662.967Z" style="fill:rgb(124,207,249);"/>
                <clipPath id="_clip7">
                    <path d="M766.034,662.967C778.441,654.52 796.482,654.557 800.753,636.394C804.513,620.402 794.505,617.872 789.123,604.671C787.395,600.434 791.289,591.362 794.265,594.833C803.44,605.533 824.031,617.943 823.057,641.26C822.157,662.814 807.329,666.934 810.108,676.792C813.047,687.216 829.422,687.309 828.643,703.371C827.99,716.853 812.136,740.049 791.987,740.049C771.838,740.049 750.145,727.56 747.417,702.434C745.205,682.049 757.261,668.94 766.034,662.967Z"/>
                </clipPath>
                <g clip-path="url(#_clip7)">
                    <g transform="matrix(0.258819,0.965926,-0.965926,0.258819,1265.39,-243.213)">
                        <path d="M743.446,721.703C742.413,717.842 749.793,717.083 756.558,721.94C767.213,729.589 794.277,733.805 803.942,720.543C821.838,695.987 804.639,687.828 804.813,675.67C804.977,664.307 810.659,649.751 812.675,652.771C818.689,661.779 845.571,689.502 844.793,705.564C844.139,719.047 811.737,751.57 791.588,751.57C771.439,751.57 749.977,746.119 743.446,721.703Z" style="fill:rgb(38,92,166);"/>
                    </g>
                </g>
            </g>
        </g>
    </g>
</svg>
